<svg version="1.2" xmlns="http://www.w3.org/2000/svg" viewBox="0 0 750 750" width="750" height="750">
	<title>ODW7E31-ai</title>
	<style>
		.s0 { fill: #e8e0a6 } 
		.s1 { fill: #eeb51d } 
		.s2 { fill: #ffffff } 
		.s3 { fill: #f58921 } 
		.s4 { fill: #bd3728 } 
		.s5 { fill: #8f251e } 
		.s6 { fill: none;stroke: #763317;stroke-linecap: round;stroke-linejoin: round;stroke-width: 9 } 
		.s7 { fill: #ebcd93 } 
		.s8 { fill: #bf9d69 } 
		.s9 { fill: #56b447 } 
		.s10 { fill: #449d46 } 
		.s11 { fill: none;stroke: #783518;stroke-linecap: round;stroke-linejoin: round;stroke-width: 9 } 
		.s12 { fill: #39b24a } 
		.s13 { fill: #d0d18e } 
	</style>
	<g id="Capa 1">
		<g id="&lt;Group&gt;">
			<g id="&lt;Group&gt;">
				<g id="&lt;Group&gt;">
					<g id="pizza 1 ">
						<g id="&lt;Group&gt;">
							<path id="&lt;Path&gt;" class="s0" d="m119 195.2l71.9 57.4 11.6 9.3 26.6 21.2 13 10.4 99.7 79.6-74 27.7-61.3 23-126 47.1c0 0-99.2-151.1 38.5-275.7z"/>
						</g>
						<g id="&lt;Group&gt;">
							<path id="&lt;Path&gt;" class="s1" d="m147.2 217.7l194.6 155.4-225.7 84.5c0 0-87.4-113.2 31.1-239.9z"/>
						</g>
						<path id="&lt;Path&gt;" class="s2" d="m102.3 433.7l229-62.7-213.6 80.5z"/>
						<g id="&lt;Group&gt;">
							<path id="&lt;Path&gt;" class="s3" d="m97.9 301.6c0 0 121.7-8.5 236.5 69.8l-184-153.4c0 0-35.5 35.1-52.5 83.6z"/>
						</g>
						<g id="&lt;Group&gt;">
							<path id="&lt;Path&gt;" class="s4" d="m190.9 252.6l11.6 9.3 26.6 21.2 13 10.4c0.7 4.5 0.9 9.2 0.4 14-3.1 27.1-27.5 46.6-54.6 43.6-27.2-3-46.7-27.5-43.7-54.6 2.8-24.5 22.9-42.7 46.7-43.9z"/>
							<path id="&lt;Path&gt;" class="s4" d="m238.2 371.7c15.7 1.8 27.7 14.1 29.6 29.1l-61.3 23c-4.3-6.4-6.4-14.2-5.5-22.4 2.1-18.5 18.7-31.8 37.2-29.7z"/>
							<path id="&lt;Path&gt;" class="s2" d="m151.9 322.3c0 0 62.5 34.1 93.8-15.7 0 0-26.2 57.3-66.5 42.3-36.5-13.7-27.3-26.6-27.3-26.6z"/>
							<g id="&lt;Group&gt;">
								<path id="&lt;Path&gt;" class="s5" d="m149 297.3c0 0 36.8-37.6 80.2-6.2l-41.7-38.2c0 0-40.2 9-38.5 44.4z"/>
							</g>
							<path id="&lt;Path&gt;" class="s6" d="m190.9 252.6l11.6 9.3 26.6 21.2 13 10.4c0.7 4.5 0.9 9.2 0.4 14-3.1 27.1-27.5 46.6-54.6 43.6-27.2-3-46.7-27.5-43.7-54.6 2.8-24.5 22.9-42.7 46.7-43.9z"/>
							<path id="&lt;Path&gt;" class="s2" d="m207.8 411.2l52.5-17.1 1.4 3.1-52.6 19.4z"/>
							<g id="&lt;Group&gt;">
								<path id="&lt;Path&gt;" class="s5" d="m207.1 400.8c0 0 18.3-21.5 50.2-13.9 0 0-16.2-23-41.1-10-25 13-9.1 23.9-9.1 23.9z"/>
							</g>
							<path id="&lt;Path&gt;" class="s6" d="m238.2 371.7c15.7 1.8 27.7 14.1 29.6 29.1l-61.3 23c-4.3-6.4-6.4-14.2-5.5-22.4 2.1-18.5 18.7-31.8 37.2-29.7z"/>
						</g>
						<path id="&lt;Path&gt;" class="s2" d="m74 444.8c0 0 9.3 0.8 4.4-92.8l36 101.4-35.3 13.6z"/>
						<g id="&lt;Group&gt;">
							<path id="&lt;Path&gt;" class="s7" d="m50.6 323.8c0 0 36.5-56.7 61.5-61.6l33.1-42.3-26.2-24.7c0 0-52.6 45.4-68.4 128.6z"/>
						</g>
						<path id="&lt;Path&gt;" class="s6" d="m119 195.2l71.9 57.4 11.6 9.3 26.6 21.2 13 10.4 99.7 79.6-74 27.7-61.3 23-126 47.1c0 0-99.2-151.1 38.5-275.7z"/>
						<path id="&lt;Path&gt;" class="s6" d="m147.2 217.7l194.6 155.4-225.7 84.5c0 0-87.4-113.2 31.1-239.9z"/>
					</g>
					<g id="&lt;Group&gt;">
						<g id="&lt;Group&gt;">
							<path id="&lt;Path&gt;" class="s0" d="m663.5 272.9l-86.1 32.2-13.9 5.2-31.9 12-15.5 5.8-119.6 44.8 14.2-77.7 11.7-64.4 24.1-132.4c0 0 180.6-7.7 217 174.5z"/>
						</g>
						<g id="&lt;Group&gt;">
							<path id="&lt;Path&gt;" class="s1" d="m629.8 285.5l-145.1 54.3-14.6 5.5-1.4 0.6-22.5 8.4-49.7 18.6 43.2-237c0 0 141.9-17.1 190.1 149.6z"/>
						</g>
						<path id="&lt;Path&gt;" class="s2" d="m467.3 136.2l-63.6 228.7 40.4-224.6z"/>
						<g id="&lt;Group&gt;">
							<path id="&lt;Path&gt;" class="s3" d="m582.9 200.1c0 0-55.1 108.9-181.1 167.4l226-79.5c0 0-11.9-48.4-44.9-87.9z"/>
						</g>
						<g id="&lt;Group&gt;">
							<path id="&lt;Path&gt;" class="s4" d="m577.4 305.1l-13.9 5.2-31.9 12-15.5 5.8c-4.3-1.6-8.4-3.9-12.3-6.8-21.7-16.5-25.9-47.5-9.4-69.2 16.5-21.8 47.5-26 69.2-9.5 19.6 14.9 25 41.5 13.8 62.5z"/>
							<path id="&lt;Path&gt;" class="s4" d="m450.9 284.7c-9.6 12.6-26.3 16.5-40.2 10.5l11.7-64.4c7.7-0.4 15.5 1.8 22 6.8 14.8 11.2 17.7 32.3 6.5 47.1z"/>
							<path id="&lt;Path&gt;" class="s2" d="m537.5 236c0 0-61.3 36.1-34.6 88.5 0 0-35.8-51.9-2.2-78.8 30.4-24.3 36.8-9.7 36.8-9.7z"/>
							<g id="&lt;Group&gt;">
								<path id="&lt;Path&gt;" class="s5" d="m560.4 246.3c0 0 13.5 50.8-35.7 72l54.2-16.2c0 0 12.8-39.2-18.5-55.8z"/>
							</g>
							<path id="&lt;Path&gt;" class="s6" d="m577.4 305.1l-13.9 5.2-31.9 12-15.5 5.8c-4.3-1.6-8.4-3.9-12.3-6.8-21.7-16.5-25.9-47.5-9.4-69.2 16.5-21.8 47.5-26 69.2-9.5 19.6 14.9 25 41.5 13.8 62.5z"/>
							<path id="&lt;Path&gt;" class="s2" d="m432.5 238.4l-12.2 53.8-3.4-0.4 10.3-55.1z"/>
							<g id="&lt;Group&gt;">
								<path id="&lt;Path&gt;" class="s5" d="m441.8 243.1c0 0 9.1 26.7-13.8 50.1 0 0 28.1-2 29.7-30.1 1.7-28.1-15.9-20-15.9-20z"/>
							</g>
							<path id="&lt;Path&gt;" class="s6" d="m450.9 284.7c-9.6 12.6-26.3 16.5-40.2 10.5l11.7-64.4c7.7-0.4 15.5 1.8 22 6.8 14.8 11.2 17.7 32.3 6.5 47.1z"/>
						</g>
						<path id="&lt;Path&gt;" class="s2" d="m472.2 106.3c0 0-5.3 7.5 77.5 51.3l-105.5-21.1 6.4-37.2z"/>
						<g id="&lt;Group&gt;">
							<path id="&lt;Path&gt;" class="s7" d="m588.2 148.2c0 0 29.9 60.4 21.3 84.3l19.4 50.2 34.6-9.8c0 0-12-68.6-75.3-124.7z"/>
						</g>
						<path id="&lt;Path&gt;" class="s6" d="m663.5 272.9l-86.1 32.2-13.9 5.2-31.9 12-15.5 5.8-119.6 44.8 14.2-77.7 11.7-64.4 24.1-132.4c0 0 180.6-7.7 217 174.5z"/>
						<path id="&lt;Path&gt;" class="s6" d="m629.8 285.5l-233.3 87.4 43.2-237c0 0 141.9-17.1 190.1 149.6z"/>
						<g id="&lt;Group&gt;">
							<path id="&lt;Path&gt;" class="s8" d="m490.6 169c25.3 23-5.6 43-5.6 43l-9.8-10.8c0 0-5 25-20.8 11.7-15.4-12.9 6.2-24 6.2-24l-10.4-6.1c0 0 15-36.8 40.4-13.8z"/>
							<path id="&lt;Path&gt;" class="s2" d="m488.4 170c0 0-19.4-3.6-29.5 14.8l-8.7-2c0 0 15.6-33.4 38.2-12.8z"/>
							<g id="&lt;Group&gt;">
								<path id="&lt;Path&gt;" class="s6" d="m460.6 188.9c0 0-21.6 11.1-6.2 24 15.8 13.3 20.8-11.7 20.8-11.7l9.8 10.8c0 0 30.9-20 5.6-43-25.4-23-40.4 13.8-40.4 13.8z"/>
							</g>
						</g>
						<g id="&lt;Group&gt;">
							<path id="&lt;Path&gt;" class="s8" d="m533.4 194.3c11.9-18.4 27.7-0.9 27.7-0.9l-5.8 7.3c0 0 16.2 0.5 9.5 11.9-6.6 11-15.8-1.5-15.8-1.5l-2.7 7.2c0 0-24.7-5.7-12.9-24z"/>
							<path id="&lt;Path&gt;" class="s2" d="m534.3 195.5c0 0-0.3 12.6 12.3 17.1l-0.3 5.7c0 0-22.7-6.4-12-22.8z"/>
							<g id="&lt;Group&gt;">
								<path id="&lt;Path&gt;" class="s6" d="m549 211.1c0 0 9.2 12.5 15.8 1.5 6.7-11.4-9.5-11.9-9.5-11.9l5.8-7.3c0 0-15.8-17.5-27.7 0.9-11.8 18.3 12.9 24 12.9 24z"/>
							</g>
						</g>
						<g id="&lt;Group&gt;">
							<path id="&lt;Path&gt;" class="s8" d="m470.1 345.3l-1.8-0.4c0 0 0.1 0.4 0.4 1l-22.5 8.4c0.3-5.6 3.1-10.9 3.1-10.9l-12 1q0 0 0-0.2c-0.7-3.1-7.6-38.3 24.9-34.4 23.3 2.8 24.2 19.6 22.5 30z"/>
							<path id="&lt;Path&gt;" class="s2" d="m461.1 311.9c0 0-18 8.2-15.6 29l-8.2 3.5c0 0-6.6-36.3 23.8-32.5z"/>
							<g id="&lt;Group&gt;">
								<path id="&lt;Path&gt;" class="s6" d="m470.1 345.3l-1.8-0.4c0 0 0.1 0.4 0.4 1l-22.5 8.4c0.3-5.6 3.1-10.9 3.1-10.9l-12 1q0 0 0-0.2c-0.7-3.1-7.6-38.3 24.9-34.4 23.3 2.8 24.2 19.6 22.5 30z"/>
							</g>
						</g>
					</g>
					<g id="&lt;Group&gt;">
						<g id="&lt;Group&gt;">
							<g id="&lt;Group&gt;">
								<path id="&lt;Path&gt;" class="s0" d="m440.9 98.2l-13.6 91-2.1 14.6-5.1 33.7-2.4 16.4-18.8 126.3-61.1-50.1-50.6-41.5-104.1-85.3c0 0 80.9-161.6 257.8-105.1z"/>
							</g>
							<g id="&lt;Group&gt;">
								<path id="&lt;Path&gt;" class="s1" d="m435.6 133.8l-22.8 153.2-2.3 15.5-0.3 1.5-3.5 23.8-7.8 52.4-186.3-152.8c0 0 53.9-132.3 223-93.6z"/>
							</g>
							<path id="&lt;Path&gt;" class="s2" d="m226.2 203.5l169.2 166.5-176.9-144.3z"/>
							<g id="&lt;Group&gt;">
								<path id="&lt;Path&gt;" class="s3" d="m338.2 133.4c0 0 68.5 101 58.5 239.5l40.2-236.2c0 0-48.2-13-98.7-3.3z"/>
							</g>
							<path id="&lt;Path&gt;" class="s2" d="m202.4 184.6c0 0 4 8.4 82.5-42.8l-69.6 82-29.5-23.6z"/>
							<g id="&lt;Group&gt;">
								<path id="&lt;Path&gt;" class="s7" d="m295.3 103.6c0 0 67.4 3.1 84.1 22.2l53.3 7.4 8.2-35c0 0-65.7-22.8-145.6 5.4z"/>
							</g>
							<path id="&lt;Path&gt;" class="s6" d="m440.9 98.2l-13.6 91-2.1 14.6-5.1 33.7-2.4 16.4-18.8 126.3-61.1-50.1-50.6-41.5-104.1-85.3c0 0 80.9-161.6 257.8-105.1z"/>
							<path id="&lt;Path&gt;" class="s6" d="m435.6 133.8l-36.7 246.4-186.3-152.8c0 0 53.9-132.4 223-93.6z"/>
						</g>
						<g id="&lt;Group&gt;">
							<path id="&lt;Path&gt;" class="s4" d="m258.3 204.6l14.3 7.7c2.7 1.4 3.7 4.6 2.4 7.2l-10 18.5c-1.3 2.6-4.6 3.4-7.3 2l-14.3-7.7c-2.7-1.4-3.7-4.6-2.4-7.2l10-18.5c1.3-2.6 4.6-3.5 7.3-2z"/>
							<path id="&lt;Path&gt;" class="s2" d="m244.6 222.3c0 0 16.4 13.2 20 9.7l-2.6 8.3-23-8.5z"/>
							<path id="&lt;Path&gt;" class="s6" d="m272.6 212.3c2.7 1.4 3.7 4.6 2.4 7.2l-10 18.5c-1.3 2.6-4.6 3.4-7.3 2l-14.3-7.7c-2.7-1.4-3.7-4.6-2.4-7.2l10-18.5c1.3-2.6 4.6-3.5 7.3-2z"/>
						</g>
						<g id="&lt;Group&gt;">
							<path id="&lt;Path&gt;" class="s4" d="m324.9 183.9l13.1-4.4c2.5-0.8 5.1 0.5 5.8 2.8l5.6 16.9c0.8 2.4-0.6 4.9-3 5.7l-13.1 4.3c-2.5 0.8-5.1-0.4-5.8-2.7l-5.6-17c-0.8-2.3 0.6-4.8 3-5.6z"/>
							<path id="&lt;Path&gt;" class="s2" d="m327.9 202.6c0 0 17.6-2.3 17.6-6.6l3.5 6.4-18.6 9.2z"/>
							<path id="&lt;Path&gt;" class="s6" d="m338 179.5c2.5-0.8 5.1 0.5 5.8 2.8l5.6 16.9c0.8 2.4-0.6 4.9-3 5.7l-13.1 4.3c-2.5 0.8-5.1-0.4-5.8-2.7l-5.6-17c-0.8-2.3 0.6-4.8 3-5.6z"/>
						</g>
						<g id="&lt;Group&gt;">
							<path id="&lt;Path&gt;" class="s4" d="m366.4 142.3l7.3 8.8c1.4 1.6 1.2 4-0.3 5.3l-11.5 9.5c-1.5 1.3-3.9 1-5.3-0.6l-7.3-8.8c-1.4-1.7-1.2-4.1 0.4-5.4l11.4-9.5c1.6-1.3 3.9-1 5.3 0.7z"/>
							<path id="&lt;Path&gt;" class="s2" d="m352.7 150.2c0 0 7.2 13 10.6 11.7l-4 4.7-12.7-11.7z"/>
							<path id="&lt;Path&gt;" class="s6" d="m373.7 151.1c1.4 1.6 1.2 4-0.3 5.3l-11.5 9.5c-1.5 1.3-3.9 1-5.3-0.6l-7.3-8.8c-1.4-1.7-1.2-4.1 0.4-5.4l11.4-9.5c1.6-1.3 3.9-1 5.3 0.7z"/>
						</g>
						<g id="&lt;Group&gt;">
							<path id="&lt;Path&gt;" class="s4" d="m300.9 178l2.4 7.1c0.5 1.3-0.2 2.8-1.4 3.2l-9.2 3.1c-1.3 0.4-2.7-0.3-3.1-1.6l-2.4-7.1c-0.5-1.3 0.2-2.8 1.5-3.2l9.1-3.1c1.3-0.4 2.7 0.3 3.1 1.6z"/>
							<path id="&lt;Path&gt;" class="s2" d="m290.7 179.7c0 0 1.4 9.6 3.7 9.5l-3.5 2-5-10.1z"/>
							<path id="&lt;Path&gt;" class="s6" d="m303.3 185.1c0.5 1.3-0.2 2.8-1.4 3.2l-9.2 3.1c-1.3 0.4-2.7-0.3-3.1-1.6l-2.4-7.1c-0.5-1.3 0.2-2.8 1.5-3.2l9.1-3.1c1.3-0.4 2.7 0.3 3.1 1.6z"/>
						</g>
						<g id="&lt;Group&gt;">
							<path id="&lt;Path&gt;" class="s4" d="m391.3 336.1l2.4 7.1c0.5 1.3-0.2 2.8-1.5 3.2l-9.1 3.1c-1.3 0.4-2.7-0.3-3.1-1.6l-2.4-7.1c-0.5-1.3 0.2-2.8 1.4-3.2l9.2-3.1c1.3-0.4 2.7 0.3 3.1 1.6z"/>
							<path id="&lt;Path&gt;" class="s2" d="m381.1 337.8c0 0 1.4 9.6 3.7 9.6l-3.5 1.9-5-10.1z"/>
							<path id="&lt;Path&gt;" class="s6" d="m393.7 343.2c0.5 1.3-0.2 2.8-1.5 3.2l-9.1 3.1c-1.3 0.4-2.7-0.3-3.1-1.6l-2.4-7.1c-0.5-1.3 0.2-2.8 1.4-3.2l9.2-3.1c1.3-0.4 2.7 0.3 3.1 1.6z"/>
						</g>
						<g id="&lt;Group&gt;">
							<path id="&lt;Path&gt;" class="s4" d="m338.4 295.7l-2.1 7.2c-0.3 1.3-1.7 2.1-3 1.8l-9.3-2.7c-1.3-0.3-2-1.7-1.6-3.1l2-7.2c0.4-1.3 1.8-2.1 3-1.7l9.4 2.6c1.2 0.3 2 1.7 1.6 3.1z"/>
							<path id="&lt;Path&gt;" class="s2" d="m329 291.3c0 0-4.3 8.6-2.3 10l-4-0.4 1.5-11.2z"/>
							<path id="&lt;Path&gt;" class="s6" d="m336.3 302.9c-0.3 1.3-1.7 2.1-3 1.8l-9.3-2.7c-1.3-0.3-2-1.7-1.6-3.1l2-7.2c0.4-1.3 1.8-2.1 3-1.7l9.4 2.6c1.2 0.3 2 1.7 1.6 3.1z"/>
						</g>
						<g id="&lt;Group&gt;">
							<path id="&lt;Path&gt;" class="s4" d="m396.5 239.4l7 2.7c1.3 0.5 1.9 1.9 1.5 3.2l-3.5 9c-0.5 1.2-2 1.8-3.3 1.3l-7-2.7c-1.3-0.5-1.9-1.9-1.5-3.1l3.5-9.1c0.5-1.2 2-1.8 3.3-1.3z"/>
							<path id="&lt;Path&gt;" class="s2" d="m391.2 248.3c0 0 8.2 5.1 9.7 3.3l-0.7 3.9-11-2.6z"/>
							<path id="&lt;Path&gt;" class="s6" d="m403.5 242.1c1.3 0.5 1.9 1.9 1.5 3.2l-3.5 9c-0.5 1.2-2 1.8-3.3 1.3l-7-2.7c-1.3-0.5-1.9-1.9-1.5-3.1l3.5-9.1c0.5-1.2 2-1.8 3.3-1.3z"/>
						</g>
						<g id="&lt;Group&gt;">
							<path id="&lt;Path&gt;" class="s4" d="m411.4 149l-0.7 7.5c-0.1 1.4-1.3 2.4-2.7 2.3l-9.6-1c-1.3-0.1-2.3-1.3-2.1-2.7l0.7-7.5c0.1-1.4 1.3-2.4 2.6-2.3l9.7 1c1.3 0.1 2.3 1.4 2.1 2.7z"/>
							<path id="&lt;Path&gt;" class="s2" d="m401.5 146.4c0 0-2.8 9.3-0.6 10.2l-4 0.3-0.5-11.2z"/>
							<path id="&lt;Path&gt;" class="s6" d="m410.7 156.5c-0.1 1.4-1.3 2.4-2.7 2.3l-9.6-1c-1.3-0.1-2.3-1.3-2.1-2.7l0.7-7.5c0.1-1.4 1.3-2.4 2.6-2.3l9.7 1c1.3 0.1 2.3 1.4 2.1 2.7z"/>
						</g>
						<g id="&lt;Group&gt;">
							<path id="&lt;Path&gt;" class="s4" d="m367.1 237.3l7.2 2.2c1.3 0.5 2.1 1.8 1.7 3.1l-2.9 9.2c-0.4 1.3-1.8 2-3.1 1.6l-7.2-2.3c-1.3-0.4-2.1-1.8-1.7-3l2.9-9.3c0.4-1.2 1.8-1.9 3.1-1.5z"/>
							<path id="&lt;Path&gt;" class="s2" d="m362.5 246.5c0 0 8.5 4.6 9.9 2.7l-0.5 3.9-11.1-1.8z"/>
							<path id="&lt;Path&gt;" class="s6" d="m374.3 239.5c1.3 0.5 2.1 1.8 1.7 3.1l-2.9 9.2c-0.4 1.3-1.8 2-3.1 1.6l-7.2-2.3c-1.3-0.4-2.1-1.8-1.7-3l2.9-9.3c0.4-1.2 1.8-1.9 3.1-1.5z"/>
						</g>
						<g id="&lt;Group&gt;">
							<path id="&lt;Path&gt;" class="s4" d="m287.9 248.3l2.4 7c0.5 1.4-0.2 2.8-1.4 3.2l-9.2 3.1c-1.3 0.5-2.7-0.3-3.1-1.6l-2.4-7.1c-0.5-1.3 0.2-2.7 1.4-3.2l9.2-3.1c1.3-0.4 2.7 0.3 3.1 1.7z"/>
							<path id="&lt;Path&gt;" class="s2" d="m277.7 249.9c0 0 1.4 9.6 3.7 9.6l-3.5 1.9-5-10z"/>
							<path id="&lt;Path&gt;" class="s6" d="m290.3 255.3c0.5 1.4-0.2 2.8-1.4 3.2l-9.2 3.1c-1.3 0.5-2.7-0.3-3.1-1.6l-2.4-7.1c-0.5-1.3 0.2-2.7 1.4-3.2l9.2-3.1c1.3-0.4 2.7 0.3 3.1 1.7z"/>
						</g>
						<g id="&lt;Group&gt;">
							<path id="&lt;Path&gt;" class="s4" d="m310.2 256l5-12.8c0.9-2.4 3.5-3.6 5.8-2.8l16.6 6.5c2.3 0.9 3.4 3.6 2.5 6l-5.1 12.8c-0.9 2.4-3.5 3.7-5.8 2.8l-16.6-6.5c-2.3-0.9-3.4-3.6-2.4-6z"/>
							<path id="&lt;Path&gt;" class="s2" d="m326.5 265.7c0 0 9.4-15.1 6.1-17.8l7.3 1.4-4.9 20.2z"/>
							<path id="&lt;Path&gt;" class="s6" d="m315.2 243.2c0.9-2.4 3.5-3.6 5.8-2.8l16.6 6.5c2.3 0.9 3.4 3.6 2.5 6l-5.1 12.8c-0.9 2.4-3.5 3.7-5.8 2.8l-16.6-6.5c-2.3-0.9-3.4-3.6-2.4-6z"/>
						</g>
						<g id="&lt;Group&gt;">
							<path id="&lt;Path&gt;" class="s4" d="m387.1 174.5l14.4 9.4c2.7 1.8 3.5 5.3 1.8 7.8l-12.1 18.7c-1.7 2.5-5.2 3.2-7.9 1.4l-14.4-9.4c-2.7-1.7-3.5-5.2-1.9-7.8l12.2-18.6c1.7-2.6 5.2-3.2 7.9-1.5z"/>
							<path id="&lt;Path&gt;" class="s2" d="m371.1 192c0 0 16 15.4 20.2 12l-3.6 8.5-23.3-11.1z"/>
							<path id="&lt;Path&gt;" class="s6" d="m401.5 183.9c2.7 1.8 3.5 5.3 1.8 7.8l-12.1 18.7c-1.7 2.5-5.2 3.2-7.9 1.4l-14.4-9.4c-2.7-1.7-3.5-5.2-1.9-7.8l12.2-18.6c1.7-2.6 5.2-3.2 7.9-1.5z"/>
						</g>
						<g id="&lt;Group&gt;">
							<path id="&lt;Path&gt;" class="s4" d="m385.2 284.4l2 17.1c0.3 3.2-1.8 6-4.9 6.4l-22.1 2.5c-3 0.4-5.7-1.9-6.1-5.1l-2-17.1c-0.3-3.2 1.8-6.1 4.9-6.4l22.1-2.5c3-0.4 5.8 1.9 6.1 5.1z"/>
							<path id="&lt;Path&gt;" class="s2" d="m361.6 283.2c0 0-1.6 22.2 3.6 23.2l-8.8 2.7-6.4-25z"/>
							<path id="&lt;Path&gt;" class="s6" d="m387.2 301.5c0.3 3.2-1.8 6-4.9 6.4l-22.1 2.5c-3 0.4-5.7-1.9-6.1-5.1l-2-17.1c-0.3-3.2 1.8-6.1 4.9-6.4l22.1-2.5c3-0.4 5.8 1.9 6.1 5.1z"/>
						</g>
					</g>
					<g id="&lt;Group&gt;">
						<g id="&lt;Group&gt;">
							<g id="&lt;Group&gt;">
								<path id="&lt;Path&gt;" class="s0" d="m146.5 490.1l84.3-36.8 13.6-5.9 31.2-13.7 15.2-6.6 117-51.1-10 78.4-8.3 64.9-17.1 133.5c0 0-179.9 17.2-225.9-162.7z"/>
							</g>
							<g id="&lt;Group&gt;">
								<path id="&lt;Path&gt;" class="s1" d="m179.5 475.7l142-62 14.3-6.2 1.4-0.6 22-9.6 48.6-21.3-30.6 239c0 0-140.8 24.6-197.7-139.3z"/>
							</g>
							<path id="&lt;Path&gt;" class="s2" d="m349.7 616.1l51.3-231.7-28.4 226.5z"/>
							<g id="&lt;Group&gt;">
								<path id="&lt;Path&gt;" class="s3" d="m230.8 558.4c0 0 49.3-111.6 172-176.7l-221.5 91.4c0 0 14.5 47.7 49.5 85.3z"/>
							</g>
							<g id="&lt;Group&gt;">
								<path id="&lt;Path&gt;" class="s4" d="m230.8 453.3l13.6-5.9 31.2-13.7 15.2-6.6c4.4 1.4 8.6 3.5 12.6 6.2 22.6 15.3 28.4 46 13.1 68.6-15.3 22.6-46.1 28.5-68.6 13.1-20.4-13.8-27.2-40.1-17.1-61.7z"/>
								<path id="&lt;Path&gt;" class="s4" d="m358.2 467c8.9-13.1 25.4-17.9 39.6-12.6l-8.3 64.9c-7.6 0.8-15.5-1-22.4-5.6-15.3-10.4-19.3-31.3-8.9-46.7z"/>
								<path id="&lt;Path&gt;" class="s2" d="m274.3 520.3c0 0 59.3-39.4 29.8-90.3 0 0 38.5 49.9 6.4 78.6-29.1 25.9-36.2 11.7-36.2 11.7z"/>
								<g id="&lt;Group&gt;">
									<path id="&lt;Path&gt;" class="s5" d="m250.9 511.2c0 0-16.2-50.1 31.8-73.8l-53.2 19c0 0-10.8 39.9 21.4 54.8z"/>
								</g>
								<path id="&lt;Path&gt;" class="s6" d="m230.8 453.3l13.6-5.9 31.2-13.7 15.2-6.6c4.4 1.4 8.6 3.5 12.6 6.2 22.6 15.3 28.4 46 13.1 68.6-15.3 22.6-46.1 28.5-68.6 13.1-20.4-13.8-27.2-40.1-17.1-61.7z"/>
								<path id="&lt;Path&gt;" class="s2" d="m379 512.3l9.3-54.4 3.4 0.2-7.3 55.6z"/>
								<g id="&lt;Group&gt;">
									<path id="&lt;Path&gt;" class="s5" d="m369.4 508.1c0 0-10.5-26.2 11.2-50.8 0 0-27.9 3.5-28.1 31.6-0.1 28.2 16.9 19.2 16.9 19.2z"/>
								</g>
								<path id="&lt;Path&gt;" class="s6" d="m358.2 467c8.9-13.1 25.4-17.9 39.6-12.6l-8.3 64.9c-7.6 0.8-15.5-1-22.4-5.6-15.3-10.4-19.3-31.3-8.9-46.7z"/>
							</g>
							<path id="&lt;Path&gt;" class="s2" d="m346.3 646.3c0 0 5-7.8-80-47.1l106.4 15.4-4.4 37.6z"/>
							<g id="&lt;Group&gt;">
								<path id="&lt;Path&gt;" class="s7" d="m228.3 610.6c0 0-33-58.7-25.7-83.1l-22.1-49-34 11.6c0 0 15.6 67.8 81.8 120.5z"/>
							</g>
							<path id="&lt;Path&gt;" class="s6" d="m146.5 490.1l84.3-36.8 13.6-5.9 31.2-13.7 15.2-6.6 117-51.1-10 78.4-8.3 64.9-17.1 133.5c0 0-179.9 17.2-225.9-162.7z"/>
							<path id="&lt;Path&gt;" class="s6" d="m179.5 475.7l228.3-99.7-30.6 239c0 0-140.8 24.6-197.7-139.3z"/>
						</g>
						<g id="&lt;Group&gt;">
							<path id="&lt;Path&gt;" class="s9" d="m310.3 590.1c0 0 28.2-46.3 58.9-10 0 0-18 32-58.9 10z"/>
							<path id="&lt;Path&gt;" class="s2" d="m371.6 576.9c0 0-25.2 23.7-52.4 8.5l-3.3 4.1c0 0 41.4 17 55.7-12.6z"/>
							<g id="&lt;Group&gt;">
								<path id="&lt;Path&gt;" class="s10" d="m368.3 579.8c0 0-24.7-17.4-50.9 8.9 0 0-0.6-12.7 13.5-17.8 14.1-5.2 31.5-5.6 37.4 8.9z"/>
							</g>
							<path id="&lt;Path&gt;" class="s11" d="m368.8 578.3c0 0-15.9 33.1-58.1 13.6 0 0 25.3-47.9 58.1-13.6z"/>
						</g>
						<g id="&lt;Group&gt;">
							<path id="&lt;Path&gt;" class="s9" d="m348.1 424c0 0 23.4-38.4 48.8-8.3 0 0-14.9 26.6-48.8 8.3z"/>
							<path id="&lt;Path&gt;" class="s2" d="m399 413c0 0-21 19.7-43.6 7.1l-2.7 3.4c0 0 34.4 14.1 46.3-10.5z"/>
							<g id="&lt;Group&gt;">
								<path id="&lt;Path&gt;" class="s10" d="m396.2 415.4c0 0-20.5-14.4-42.3 7.4 0 0-0.5-10.5 11.3-14.8 11.7-4.2 26.1-4.6 31 7.4z"/>
							</g>
							<path id="&lt;Path&gt;" class="s11" d="m396.7 414.2c0 0-13.3 27.5-48.3 11.3 0 0 21-39.8 48.3-11.3z"/>
						</g>
						<g id="&lt;Group&gt;">
							<path id="&lt;Path&gt;" class="s9" d="m339.8 546.5c0 0-27.4-9.2-12.1-29.4 0 0 18.8 5.5 12.1 29.4z"/>
							<path id="&lt;Path&gt;" class="s2" d="m325.7 516.2c0 0 15.3 10.3 10.7 26.3l2.5 1.2c0 0 3.9-23.6-13.2-27.5z"/>
							<g id="&lt;Group&gt;">
								<path id="&lt;Path&gt;" class="s10" d="m327.6 517.6c0 0-6.1 14.9 10.7 25.4 0 0-6.6 1.8-10.9-4.9-4.3-6.8-6.6-15.7 0.2-20.5z"/>
							</g>
							<path id="&lt;Path&gt;" class="s11" d="m326.8 517.5c0 0 19.1 4.3 13.9 28.6 0 0-27.9-7.5-13.9-28.6z"/>
						</g>
						<g id="&lt;Group&gt;">
							<path id="&lt;Path&gt;" class="s9" d="m346.6 460.6c0 0-19.8-6.6-8.8-21.2 0 0 13.5 4 8.8 21.2z"/>
							<path id="&lt;Path&gt;" class="s2" d="m336.4 438.8c0 0 11 7.4 7.7 18.9l1.8 0.9c0 0 2.8-17-9.5-19.8z"/>
							<g id="&lt;Group&gt;">
								<path id="&lt;Path&gt;" class="s10" d="m337.8 439.7c0 0-4.4 10.8 7.6 18.4 0 0-4.7 1.3-7.8-3.6-3.1-4.8-4.8-11.3 0.2-14.8z"/>
							</g>
							<path id="&lt;Path&gt;" class="s11" d="m337.2 439.7c0 0 13.7 3.1 10 20.6 0 0-20.1-5.4-10-20.6z"/>
						</g>
						<g id="&lt;Group&gt;">
							<path id="&lt;Path&gt;" class="s9" d="m237.7 535.8c0 0-19.8-6.6-8.8-21.2 0 0 13.5 4 8.8 21.2z"/>
							<path id="&lt;Path&gt;" class="s2" d="m227.5 513.9c0 0 11 7.5 7.7 19l1.8 0.9c0 0 2.8-17-9.5-19.9z"/>
							<g id="&lt;Group&gt;">
								<path id="&lt;Path&gt;" class="s10" d="m228.9 514.9c0 0-4.4 10.8 7.6 18.4 0 0-4.7 1.3-7.8-3.6-3.1-4.8-4.8-11.3 0.2-14.8z"/>
							</g>
							<path id="&lt;Path&gt;" class="s11" d="m228.3 514.9c0 0 13.7 3.1 10 20.6 0 0-20.1-5.4-10-20.6z"/>
						</g>
						<g id="&lt;Group&gt;">
							<path id="&lt;Path&gt;" class="s9" d="m202.2 501.1c0 0-6.7-19.8 11.6-19.8 0 0 5 13.2-11.6 19.8z"/>
							<path id="&lt;Path&gt;" class="s2" d="m213.4 479.8c0 0 0.8 13.3-10.4 17.5l0.4 2c0 0 15.2-8 10-19.5z"/>
							<g id="&lt;Group&gt;">
								<path id="&lt;Path&gt;" class="s10" d="m213.5 481.5c0 0-11.2 3-10 17.1 0 0-3.9-2.9-1.9-8.3 2-5.5 6.2-10.7 11.9-8.8z"/>
							</g>
							<path id="&lt;Path&gt;" class="s11" d="m213.2 480.9c0 0 5.8 12.9-10.4 20.5 0 0-7.9-19.3 10.4-20.5z"/>
						</g>
						<g id="&lt;Group&gt;">
							<path id="&lt;Path&gt;" class="s9" d="m269 577.5c0 0-12.7-37.7 22.2-37.8 0 0 9.5 25.2-22.2 37.8z"/>
							<path id="&lt;Path&gt;" class="s2" d="m290.5 536.8c0 0 1.4 25.4-20 33.5l0.7 3.8c0 0 29.2-15.2 19.3-37.3z"/>
							<g id="&lt;Group&gt;">
								<path id="&lt;Path&gt;" class="s10" d="m290.6 540c0 0-21.5 5.8-19.1 32.9 0 0-7.4-5.7-3.6-16 3.8-10.4 11.8-20.4 22.7-16.9z"/>
							</g>
							<path id="&lt;Path&gt;" class="s11" d="m290 539.1c0 0 11 24.5-19.8 39.1 0 0-15-36.9 19.8-39.1z"/>
						</g>
					</g>
					<g id="&lt;Group&gt;">
						<g id="&lt;Group&gt;">
							<g id="&lt;Group&gt;">
								<path id="&lt;Path&gt;" class="s0" d="m636 538.2l-73.7-55-11.9-8.9-27.4-20.3-13.2-9.9-102.4-76.3 73-30.2 60.5-24.9 124.4-51.4c0 0 104.1 147.7-29.3 276.9z"/>
							</g>
							<g id="&lt;Group&gt;">
								<path id="&lt;Path&gt;" class="s1" d="m607.1 516.6l-124.2-92.5-12.5-9.4-1.2-0.9-19.3-14.3-42.5-31.7 222.7-91.9c0 0 91.1 110.1-23 240.7z"/>
							</g>
							<path id="&lt;Path&gt;" class="s2" d="m644.7 299.2l-226.7 70.3 210.8-87.6z"/>
							<g id="&lt;Group&gt;">
								<path id="&lt;Path&gt;" class="s3" d="m653.6 431.1c0 0-121.4 12.6-238.8-61.8l189.1 147.1c0 0 34.3-36.3 49.7-85.3z"/>
							</g>
							<g id="&lt;Group&gt;">
								<path id="&lt;Path&gt;" class="s4" d="m562.3 483.2l-11.9-8.9-27.4-20.3-13.2-9.9c-1-4.5-1.3-9.2-0.9-14 2.1-27.2 25.9-47.5 53.1-45.4 27.2 2.1 47.5 25.9 45.4 53.1-1.9 24.5-21.4 43.5-45.1 45.4z"/>
								<path id="&lt;Path&gt;" class="s4" d="m511 365.8c-15.8-1.3-28.2-13.2-30.6-28.2l60.5-24.9c4.5 6.2 6.9 13.9 6.2 22.2-1.4 18.5-17.6 32.3-36.1 30.9z"/>
								<path id="&lt;Path&gt;" class="s2" d="m598.9 412.3c0 0-63.6-32.1-93.2 18.8 0 0 24.3-58.2 65.1-44.5 36.9 12.4 28.1 25.7 28.1 25.7z"/>
								<g id="&lt;Group&gt;">
									<path id="&lt;Path&gt;" class="s5" d="m602.6 437.1c0 0-35.5 38.8-79.9 8.9l42.9 36.8c0 0 40-10.4 37-45.7z"/>
								</g>
								<path id="&lt;Path&gt;" class="s6" d="m562.3 483.2l-11.9-8.9-27.4-20.3-13.2-9.9c-1-4.5-1.3-9.2-0.9-14 2.1-27.2 25.9-47.5 53.1-45.4 27.2 2.1 47.5 25.9 45.4 53.1-1.9 24.5-21.4 43.5-45.1 45.4z"/>
								<path id="&lt;Path&gt;" class="s2" d="m540 325.3l-51.8 18.9-1.6-3.1 51.9-21.2z"/>
								<g id="&lt;Group&gt;">
									<path id="&lt;Path&gt;" class="s5" d="m541.1 335.6c0 0-17.6 22.2-49.7 15.6 0 0 16.9 22.4 41.4 8.6 24.6-13.8 8.3-24.2 8.3-24.2z"/>
								</g>
								<path id="&lt;Path&gt;" class="s6" d="m511 365.8c-15.8-1.3-28.2-13.2-30.6-28.2l60.5-24.9c4.5 6.2 6.9 13.9 6.2 22.2-1.4 18.5-17.6 32.3-36.1 30.9z"/>
							</g>
							<path id="&lt;Path&gt;" class="s2" d="m672.6 287.2c0 0-9.2-0.4-1.2 92.9l-39.4-100.1 34.8-14.8z"/>
							<g id="&lt;Group&gt;">
								<path id="&lt;Path&gt;" class="s7" d="m700.1 407.4c0 0-34.6 57.8-59.4 63.5l-31.7 43.5 27 23.8c0 0 51.1-47.2 64.1-130.8z"/>
							</g>
							<path id="&lt;Path&gt;" class="s6" d="m636 538.2l-73.7-55-11.9-8.9-27.4-20.3-13.2-9.9-102.4-76.3 73-30.2 60.5-24.9 124.4-51.4c0 0 104.1 147.7-29.3 276.9z"/>
							<path id="&lt;Path&gt;" class="s6" d="m607.1 516.6l-199.7-148.8 222.7-91.9c0 0 91.1 110.1-23 240.7z"/>
						</g>
						<g id="&lt;Group&gt;">
							<path id="&lt;Path&gt;" class="s9" d="m626 328.7c0 0-33.9-1-23.7-28.9 0 0 23-0.2 23.7 28.9z"/>
							<path id="&lt;Path&gt;" class="s2" d="m599.8 299.4c0 0 20.7 6.4 20.9 25.9l3.3 0.6c0 0-3.6-27.9-24.2-26.5z"/>
							<g id="&lt;Group&gt;">
								<path id="&lt;Path&gt;" class="s10" d="m602.4 300.3c0 0-1.7 18.9 20.7 25 0 0-6.8 4.2-13.9-1.8-7.2-6.1-12.8-15.5-6.8-23.2z"/>
							</g>
							<path id="&lt;Path&gt;" class="s11" d="m601.4 300.5c0 0 23-1.6 25.5 27.4 0 0-33.9 1.1-25.5-27.4z"/>
						</g>
						<g id="&lt;Group&gt;">
							<path id="&lt;Path&gt;" class="s9" d="m642.6 416.2c0 0 7.6 33.1-22.1 30.2 0 0-5.9-22.3 22.1-30.2z"/>
							<path id="&lt;Path&gt;" class="s2" d="m620.9 448.9c0 0 0.9-21.7 19.8-26.7l-0.3-3.3c0 0-26.1 10.4-19.5 30z"/>
							<g id="&lt;Group&gt;">
								<path id="&lt;Path&gt;" class="s10" d="m621.1 446.1c0 0 18.7-3 19-26.2 0 0 5.8 5.4 1.7 13.9-4.1 8.5-11.8 16.2-20.7 12.3z"/>
							</g>
							<path id="&lt;Path&gt;" class="s11" d="m621.5 447c0 0-7.3-21.8 20.1-31.5 0 0 9.6 32.6-20.1 31.5z"/>
						</g>
						<g id="&lt;Group&gt;">
							<path id="&lt;Path&gt;" class="s9" d="m478.7 395.9c0 0-45-1.3-31.5-38.3 0 0 30.5-0.3 31.5 38.3z"/>
							<path id="&lt;Path&gt;" class="s2" d="m443.9 357.1c0 0 27.5 8.5 27.7 34.3l4.4 0.8c0 0-4.8-37-32.1-35.1z"/>
							<g id="&lt;Group&gt;">
								<path id="&lt;Path&gt;" class="s10" d="m447.4 358.3c0 0-2.4 25 27.4 33.1 0 0-9 5.7-18.5-2.4-9.5-8.1-16.9-20.5-8.9-30.7z"/>
							</g>
							<path id="&lt;Path&gt;" class="s11" d="m446.1 358.6c0 0 30.4-2.2 33.7 36.3 0 0-45 1.5-33.7-36.3z"/>
						</g>
						<g id="&lt;Group&gt;">
							<path id="&lt;Path&gt;" class="s8" d="m596.3 341.8c21.8 0 15.7 22.7 15.7 22.7l-9.3-0.9c0 0 8.4 13.9-4.9 14.4-12.8 0.5-7.2-14-7.2-14l-7.5 1.5c0 0-8.7-23.8 13.2-23.7z"/>
							<path id="&lt;Path&gt;" class="s2" d="m595.7 343.2c0 0-10.8 6.5-7.7 19.5l-4.9 2.8c0 0-6.9-22.5 12.6-22.3z"/>
							<g id="&lt;Group&gt;">
								<path id="&lt;Path&gt;" class="s6" d="m590.6 364c0 0-5.6 14.5 7.2 14 13.3-0.5 4.9-14.4 4.9-14.4l9.3 0.9c0 0 6.1-22.7-15.7-22.7-21.9-0.1-13.2 23.7-13.2 23.7z"/>
							</g>
						</g>
						<g id="&lt;Group&gt;">
							<path id="&lt;Path&gt;" class="s4" d="m640.1 369.4l6.6 7.7c1.2 1.5 1.1 3.6-0.3 4.7l-10 8.5c-1.4 1.2-3.5 1-4.7-0.5l-6.6-7.7c-1.2-1.4-1.1-3.5 0.3-4.7l10-8.5c1.4-1.2 3.5-0.9 4.7 0.5z"/>
							<path id="&lt;Path&gt;" class="s2" d="m628.1 376.6c0 0 6.5 11.4 9.4 10.2l-3.4 4.2-11.4-10.2z"/>
							<path id="&lt;Path&gt;" class="s6" d="m646.7 377.1c1.2 1.5 1.1 3.6-0.3 4.7l-10 8.5c-1.4 1.2-3.5 1-4.7-0.5l-6.6-7.7c-1.2-1.4-1.1-3.5 0.3-4.7l10-8.5c1.4-1.2 3.5-0.9 4.7 0.5z"/>
						</g>
						<g id="&lt;Group&gt;">
							<path id="&lt;Path&gt;" class="s4" d="m509.4 381.8l5.8 6.8c1.1 1.3 1 3.2-0.2 4.2l-8.9 7.5c-1.2 1.1-3.1 0.9-4.2-0.4l-5.8-6.9c-1.1-1.2-1-3.1 0.2-4.1l8.9-7.6c1.2-1 3.1-0.8 4.2 0.5z"/>
							<path id="&lt;Path&gt;" class="s2" d="m498.7 388.1c0 0 5.8 10.1 8.4 9.1l-3.1 3.7-10.1-9z"/>
							<path id="&lt;Path&gt;" class="s6" d="m515.2 388.6c1.1 1.3 1 3.2-0.2 4.2l-8.9 7.5c-1.2 1.1-3.1 0.9-4.2-0.4l-5.8-6.9c-1.1-1.2-1-3.1 0.2-4.1l8.9-7.6c1.2-1 3.1-0.8 4.2 0.5z"/>
						</g>
						<g id="&lt;Group&gt;">
							<g id="&lt;Group&gt;">
								<path id="&lt;Compound Path&gt;" fill-rule="evenodd" class="s12" d="m583.4 323.9c-1.8 7.1-3.2 11.8-10.1 11.7-6.8-0.1-11.2-7-11.2-7-3-5.6-0.4-15.6 7.5-15.9 8-0.4 15.6 4.2 13.8 11.2zm-8.7 0.7c0.5-2-0.2-3.9-1.7-4.3-1.5-0.4-3.1 0.9-3.6 2.9-0.5 2 0.3 4 1.7 4.3 1.5 0.4 3.1-0.9 3.6-2.9z"/>
								<path id="&lt;Path&gt;" class="s13" d="m573 320.3c1.5 0.4 2.2 2.3 1.7 4.3-0.5 2-2.1 3.3-3.6 2.9-1.4-0.3-2.2-2.3-1.7-4.3 0.5-2 2.1-3.3 3.6-2.9z"/>
							</g>
							<g id="&lt;Group&gt;">
								<path id="&lt;Path&gt;" class="s6" d="m562.1 328.6c-3-5.6-0.4-15.6 7.5-15.9 8-0.4 15.6 4.2 13.8 11.2-1.8 7.1-3.2 11.8-10.1 11.7-6.8-0.1-11.2-7-11.2-7z"/>
							</g>
						</g>
						<g id="&lt;Group&gt;">
							<g id="&lt;Group&gt;">
								<path id="&lt;Compound Path&gt;" fill-rule="evenodd" class="s12" d="m613 488.3c-1.2 4.6-2.1 7.6-6.5 7.6-4.5 0-7.3-4.6-7.3-4.6-2-3.6-0.3-10 4.9-10.3 5.1-0.2 10.1 2.8 8.9 7.3zm-5.6 0.5c0.3-1.3-0.2-2.6-1.2-2.8-0.9-0.3-1.9 0.6-2.3 1.9-0.3 1.3 0.2 2.5 1.1 2.8 1 0.2 2-0.6 2.4-1.9z"/>
								<path id="&lt;Path&gt;" class="s13" d="m606.2 486c1 0.2 1.5 1.5 1.2 2.8-0.4 1.3-1.4 2.1-2.4 1.9-0.9-0.3-1.4-1.5-1.1-2.8 0.4-1.3 1.4-2.2 2.3-1.9z"/>
							</g>
							<g id="&lt;Group&gt;">
								<path id="&lt;Path&gt;" class="s6" d="m599.2 491.3c-2-3.6-0.3-10 4.9-10.3 5.1-0.2 10.1 2.8 8.9 7.3-1.2 4.6-2.1 7.6-6.5 7.6-4.5 0-7.3-4.6-7.3-4.6z"/>
							</g>
						</g>
					</g>
					<g id="&lt;Group&gt;">
						<g id="&lt;Group&gt;">
							<g id="&lt;Group&gt;">
								<path id="&lt;Path&gt;" class="s0" d="m378.1 656.7l8.5-91.5 1.4-14.8 3.2-34 1.5-16.4 11.8-127.1 63.8 46.6 52.8 38.6 108.6 79.4c0 0-71.8 165.9-251.6 119.2z"/>
							</g>
							<g id="&lt;Group&gt;">
								<path id="&lt;Path&gt;" class="s1" d="m381.5 620.9l14.3-154.3 1.4-15.5 0.2-1.5 2.2-24 4.9-52.7 194.5 142.2c0 0-46.5 135.1-217.5 105.8z"/>
							</g>
							<path id="&lt;Path&gt;" class="s2" d="m586.6 539.7l-178.1-156.9 184.6 134.3z"/>
							<g id="&lt;Group&gt;">
								<path id="&lt;Path&gt;" class="s3" d="m478.7 615.9c0 0-74-97-71.6-235.9l-27.1 238c0 0 48.8 10.4 98.7-2.1z"/>
							</g>
							<path id="&lt;Path&gt;" class="s2" d="m611.4 557.2c0 0-4.4-8.1-79.9 47.4l64.9-85.8 30.8 22z"/>
							<g id="&lt;Group&gt;">
								<path id="&lt;Path&gt;" class="s7" d="m523.2 643.3c0 0-67.5 0.6-85.2-17.6l-53.6-4.4-6.3 35.4c0 0 66.9 19.1 145.1-13.4z"/>
							</g>
							<path id="&lt;Path&gt;" class="s6" d="m378.1 656.7l8.5-91.5 1.4-14.8 3.2-34 1.5-16.4 11.8-127.1 63.8 46.6 52.8 38.6 108.6 79.4c0 0-71.8 165.9-251.6 119.2z"/>
							<path id="&lt;Path&gt;" class="s6" d="m381.5 620.9l23-248 194.5 142.1c0 0-46.5 135.2-217.5 105.9z"/>
						</g>
						<g id="&lt;Group&gt;">
							<path id="&lt;Path&gt;" class="s4" d="m513.5 569.3l-2.8-7c-0.6-1.3 0-2.7 1.3-3.2l8.9-3.6c1.3-0.5 2.7 0.1 3.2 1.4l2.8 7c0.5 1.3 0 2.7-1.3 3.2l-9 3.6c-1.2 0.5-2.6-0.1-3.1-1.4z"/>
							<path id="&lt;Path&gt;" class="s2" d="m523.5 567c0 0-1.9-9.4-4.2-9.3l3.4-2.1 5.6 9.7z"/>
							<path id="&lt;Path&gt;" class="s6" d="m510.7 562.3c-0.6-1.3 0-2.7 1.3-3.2l8.9-3.6c1.3-0.5 2.7 0.1 3.2 1.4l2.8 7c0.5 1.3 0 2.7-1.3 3.2l-9 3.6c-1.2 0.5-2.6-0.1-3.1-1.4z"/>
						</g>
						<g id="&lt;Group&gt;">
							<path id="&lt;Path&gt;" class="s4" d="m414.5 416.4l-2.8-6.9c-0.5-1.3 0-2.8 1.3-3.3l9-3.6c1.2-0.5 2.6 0.2 3.1 1.5l2.8 6.9c0.5 1.3 0 2.8-1.3 3.2l-9 3.7c-1.2 0.5-2.6-0.2-3.1-1.5z"/>
							<path id="&lt;Path&gt;" class="s2" d="m424.5 414.2c0 0-1.8-9.5-4.2-9.4l3.4-2.1 5.6 9.8z"/>
							<path id="&lt;Path&gt;" class="s6" d="m411.7 409.5c-0.5-1.3 0-2.8 1.3-3.3l9-3.6c1.2-0.5 2.6 0.2 3.1 1.5l2.8 6.9c0.5 1.3 0 2.8-1.3 3.2l-9 3.7c-1.2 0.5-2.6-0.2-3.1-1.5z"/>
						</g>
						<g id="&lt;Group&gt;">
							<path id="&lt;Path&gt;" class="s4" d="m469.6 453.9l1.6-7.3c0.3-1.4 1.6-2.3 2.9-2l9.4 2.1c1.3 0.3 2.1 1.7 1.8 3l-1.6 7.3c-0.3 1.4-1.6 2.3-2.9 2l-9.5-2.1c-1.3-0.3-2.1-1.7-1.7-3z"/>
							<path id="&lt;Path&gt;" class="s2" d="m479.1 457.7c0 0 3.8-8.8 1.8-10l4 0.1-0.9 11.2z"/>
							<path id="&lt;Path&gt;" class="s6" d="m471.2 446.6c0.3-1.4 1.6-2.3 2.9-2l9.4 2.1c1.3 0.3 2.1 1.7 1.8 3l-1.6 7.3c-0.3 1.4-1.6 2.3-2.9 2l-9.5-2.1c-1.3-0.3-2.1-1.7-1.7-3z"/>
						</g>
						<g id="&lt;Group&gt;">
							<path id="&lt;Path&gt;" class="s4" d="m414.7 513.3l-7.2-2.3c-1.3-0.5-2-1.8-1.6-3.1l3-9.2c0.4-1.3 1.8-2 3.1-1.5l7.1 2.3c1.4 0.4 2.1 1.8 1.7 3.1l-3 9.2c-0.4 1.2-1.8 1.9-3.1 1.5z"/>
							<path id="&lt;Path&gt;" class="s2" d="m419.4 504.1c0 0-8.5-4.6-9.9-2.7l0.6-4 11.1 2z"/>
							<path id="&lt;Path&gt;" class="s6" d="m407.5 511c-1.3-0.5-2-1.8-1.6-3.1l3-9.2c0.4-1.3 1.8-2 3.1-1.5l7.1 2.3c1.4 0.4 2.1 1.8 1.7 3.1l-3 9.2c-0.4 1.2-1.8 1.9-3.1 1.5z"/>
						</g>
						<g id="&lt;Group&gt;">
							<path id="&lt;Path&gt;" class="s4" d="m404.7 604.3l0.4-7.5c0-1.4 1.1-2.4 2.5-2.4l9.7 0.4c1.3 0.1 2.3 1.3 2.3 2.7l-0.4 7.4c0 1.4-1.2 2.5-2.5 2.5l-9.7-0.4c-1.3-0.1-2.3-1.3-2.3-2.7z"/>
							<path id="&lt;Path&gt;" class="s2" d="m414.8 606.4c0 0 2.2-9.4 0-10.2l4-0.6 1.1 11.3z"/>
							<path id="&lt;Path&gt;" class="s6" d="m405.1 596.8c0-1.4 1.1-2.4 2.5-2.4l9.7 0.4c1.3 0.1 2.3 1.3 2.3 2.7l-0.4 7.4c0 1.4-1.2 2.5-2.5 2.5l-9.7-0.4c-1.3-0.1-2.3-1.3-2.3-2.7z"/>
						</g>
						<g id="&lt;Group&gt;">
							<path id="&lt;Path&gt;" class="s4" d="m444.1 513.8l-7.3-1.9c-1.4-0.3-2.2-1.6-1.9-2.9l2.4-9.4c0.3-1.3 1.7-2.1 3.1-1.7l7.2 1.8c1.4 0.3 2.2 1.7 1.9 3l-2.4 9.4c-0.3 1.2-1.7 2-3 1.7z"/>
							<path id="&lt;Path&gt;" class="s2" d="m448.2 504.3c0 0-8.8-4.1-10-2.1l0.2-4 11.2 1.3z"/>
							<path id="&lt;Path&gt;" class="s6" d="m436.8 511.9c-1.4-0.3-2.2-1.6-1.9-2.9l2.4-9.4c0.3-1.3 1.7-2.1 3.1-1.7l7.2 1.8c1.4 0.3 2.2 1.7 1.9 3l-2.4 9.4c-0.3 1.2-1.7 2-3 1.7z"/>
						</g>
						<g id="&lt;Group&gt;">
							<path id="&lt;Path&gt;" class="s4" d="m522.6 498.4l-2.8-6.9c-0.6-1.3 0-2.8 1.3-3.3l9-3.6c1.2-0.5 2.6 0.2 3.1 1.5l2.8 6.9c0.5 1.3 0 2.8-1.3 3.3l-9 3.6c-1.2 0.5-2.6-0.2-3.1-1.5z"/>
							<path id="&lt;Path&gt;" class="s2" d="m532.6 496.2c0 0-1.8-9.5-4.2-9.3l3.4-2.2 5.6 9.8z"/>
							<path id="&lt;Path&gt;" class="s6" d="m519.8 491.5c-0.6-1.3 0-2.8 1.3-3.3l9-3.6c1.2-0.5 2.6 0.2 3.1 1.5l2.8 6.9c0.5 1.3 0 2.8-1.3 3.3l-9 3.6c-1.2 0.5-2.6-0.2-3.1-1.5z"/>
						</g>
						<g id="&lt;Group&gt;">
							<g id="&lt;Group&gt;">
								<path id="&lt;Compound Path&gt;" fill-rule="evenodd" class="s12" d="m546.3 536.2c-4.1-9.1-6.6-15.1 0.7-20.9 7.4-5.8 17.9-2.1 17.9-2.1 8 3.4 13.7 16.1 5.5 23.3-8.1 7.1-20 8.8-24.1-0.3zm8.6-8.1c1.2 2.6 3.6 4 5.5 3.1 1.9-0.8 2.5-3.6 1.3-6.1-1.1-2.6-3.6-4-5.5-3.1-1.9 0.8-2.4 3.6-1.3 6.1z"/>
								<path id="&lt;Path&gt;" class="s13" d="m560.4 531.2c-1.9 0.9-4.3-0.5-5.5-3.1-1.1-2.5-0.6-5.3 1.3-6.1 1.9-0.9 4.4 0.5 5.5 3.1 1.2 2.5 0.6 5.3-1.3 6.1z"/>
							</g>
							<g id="&lt;Group&gt;">
								<path id="&lt;Path&gt;" class="s6" d="m564.9 513.2c8 3.4 13.7 16.1 5.5 23.3-8.1 7.1-20 8.8-24.1-0.3-4.1-9.1-6.6-15.1 0.7-20.9 7.4-5.8 17.9-2.1 17.9-2.1z"/>
							</g>
						</g>
						<g id="&lt;Group&gt;">
							<g id="&lt;Group&gt;">
								<path id="&lt;Compound Path&gt;" fill-rule="evenodd" class="s12" d="m502.6 509c-9.5 2.9-15.9 4.6-20.6-3.4-4.8-8 0.2-18 0.2-18 4.3-7.5 17.7-11.5 23.7-2.5 6.1 9 6.2 21.1-3.3 23.9zm-6.9-9.6c2.7-0.8 4.4-3 3.8-5-0.6-2-3.3-2.9-6-2.1-2.7 0.8-4.4 3.1-3.8 5.1 0.6 1.9 3.3 2.9 6 2z"/>
								<path id="&lt;Path&gt;" class="s13" d="m499.5 494.4c0.6 2-1.1 4.2-3.8 5-2.7 0.9-5.4-0.1-6-2-0.6-2 1.1-4.3 3.8-5.1 2.7-0.8 5.4 0.1 6 2.1z"/>
							</g>
							<g id="&lt;Group&gt;">
								<path id="&lt;Path&gt;" class="s6" d="m482.2 487.6c4.3-7.5 17.7-11.5 23.7-2.5 6.1 9 6.2 21.1-3.3 23.9-9.5 2.9-15.9 4.6-20.6-3.4-4.8-8 0.2-18 0.2-18z"/>
							</g>
						</g>
						<g id="&lt;Group&gt;">
							<g id="&lt;Group&gt;">
								<path id="&lt;Compound Path&gt;" fill-rule="evenodd" class="s12" d="m443.6 473.4c-14.3 4.3-23.8 6.9-31-5.1-7.1-12.1 0.4-27.1 0.4-27.1 6.5-11.1 26.6-17.2 35.6-3.7 9 13.6 9.2 31.6-5 35.9zm-10.4-14.4c4-1.2 6.6-4.6 5.7-7.5-0.9-3-4.9-4.4-8.9-3.2-4 1.2-6.6 4.6-5.7 7.6 0.9 2.9 4.9 4.3 8.9 3.1z"/>
								<path id="&lt;Path&gt;" class="s13" d="m438.9 451.5c0.9 2.9-1.7 6.3-5.7 7.5-4 1.2-8-0.2-8.9-3.1-0.9-3 1.7-6.4 5.7-7.6 4-1.2 8 0.2 8.9 3.2z"/>
							</g>
							<g id="&lt;Group&gt;">
								<path id="&lt;Path&gt;" class="s6" d="m413 441.2c6.5-11.1 26.6-17.2 35.6-3.7 9 13.6 9.2 31.6-5 35.9-14.3 4.3-23.8 6.9-31-5.1-7.1-12.1 0.4-27.1 0.4-27.1z"/>
							</g>
						</g>
						<g id="&lt;Group&gt;">
							<g id="&lt;Group&gt;">
								<path id="&lt;Compound Path&gt;" fill-rule="evenodd" class="s12" d="m483.7 603.9c-14.2 4.3-23.7 6.9-30.9-5.1-7.2-12.1 0.3-27 0.3-27 6.5-11.2 26.6-17.3 35.6-3.8 9.1 13.6 9.3 31.6-5 35.9zm-10.3-14.4c4-1.2 6.5-4.6 5.7-7.5-0.9-3-4.9-4.4-8.9-3.2-4.1 1.3-6.6 4.6-5.7 7.6 0.9 2.9 4.9 4.3 8.9 3.1z"/>
								<path id="&lt;Path&gt;" class="s13" d="m479.1 582c0.8 2.9-1.7 6.3-5.7 7.5-4 1.2-8-0.2-8.9-3.1-0.9-3 1.6-6.3 5.7-7.6 4-1.2 8 0.2 8.9 3.2z"/>
							</g>
							<g id="&lt;Group&gt;">
								<path id="&lt;Path&gt;" class="s6" d="m453.1 571.8c6.5-11.2 26.6-17.3 35.6-3.8 9.1 13.6 9.3 31.6-5 35.9-14.2 4.3-23.7 6.9-30.9-5.1-7.2-12.1 0.3-27 0.3-27z"/>
							</g>
						</g>
						<g id="&lt;Group&gt;">
							<g id="&lt;Group&gt;">
								<path id="&lt;Compound Path&gt;" fill-rule="evenodd" class="s12" d="m418 558.5c-5.9 1.8-9.8 2.9-12.7-2.1-3-5 0.1-11.1 0.1-11.1 2.7-4.7 11-7.2 14.7-1.6 3.7 5.6 3.8 13-2.1 14.8zm-4.3-5.9c1.7-0.5 2.8-1.9 2.4-3.1-0.4-1.2-2-1.8-3.7-1.3-1.6 0.5-2.7 1.9-2.3 3.1 0.3 1.2 2 1.8 3.6 1.3z"/>
								<path id="&lt;Path&gt;" class="s13" d="m416.1 549.5c0.4 1.2-0.7 2.6-2.4 3.1-1.6 0.5-3.3-0.1-3.6-1.3-0.4-1.2 0.7-2.6 2.3-3.1 1.7-0.5 3.3 0.1 3.7 1.3z"/>
							</g>
							<g id="&lt;Group&gt;">
								<path id="&lt;Path&gt;" class="s6" d="m405.4 545.3c2.7-4.7 11-7.2 14.7-1.6 3.7 5.6 3.8 13-2.1 14.8-5.9 1.8-9.8 2.9-12.7-2.1-3-5 0.1-11.1 0.1-11.1z"/>
							</g>
						</g>
						<g id="&lt;Group&gt;">
							<g id="&lt;Group&gt;">
								<path id="&lt;Compound Path&gt;" fill-rule="evenodd" class="s12" d="m504.1 545.3c-5.8 1.8-9.8 2.8-12.7-2.1-3-5 0.1-11.2 0.1-11.2 2.7-4.6 11-7.1 14.7-1.5 3.7 5.6 3.8 13-2.1 14.8zm-4.2-5.9c1.6-0.5 2.7-1.9 2.3-3.2-0.4-1.2-2-1.8-3.7-1.3-1.6 0.5-2.7 1.9-2.3 3.2 0.4 1.2 2 1.8 3.7 1.3z"/>
								<path id="&lt;Path&gt;" class="s13" d="m502.2 536.2c0.4 1.3-0.7 2.7-2.3 3.2-1.7 0.5-3.3-0.1-3.7-1.3-0.4-1.3 0.7-2.7 2.3-3.2 1.7-0.5 3.3 0.1 3.7 1.3z"/>
							</g>
							<g id="&lt;Group&gt;">
								<path id="&lt;Path&gt;" class="s6" d="m491.5 532c2.7-4.6 11-7.1 14.7-1.5 3.7 5.6 3.8 13-2.1 14.8-5.8 1.8-9.8 2.8-12.7-2.1-3-5 0.1-11.2 0.1-11.2z"/>
							</g>
						</g>
						<g id="&lt;Group&gt;">
							<g id="&lt;Group&gt;">
								<path id="&lt;Compound Path&gt;" fill-rule="evenodd" class="s12" d="m461.1 540.5c-7 2.1-11.6 3.4-15.2-2.5-3.5-5.9 0.2-13.3 0.2-13.3 3.2-5.4 13.1-8.4 17.5-1.8 4.4 6.7 4.5 15.5-2.5 17.6zm-5.1-7c2-0.6 3.3-2.3 2.8-3.7-0.4-1.5-2.4-2.2-4.3-1.6-2 0.6-3.3 2.3-2.8 3.7 0.4 1.5 2.4 2.2 4.3 1.6z"/>
								<path id="&lt;Path&gt;" class="s13" d="m458.8 529.8c0.5 1.4-0.8 3.1-2.8 3.7-1.9 0.6-3.9-0.1-4.3-1.6-0.5-1.4 0.8-3.1 2.8-3.7 1.9-0.6 3.9 0.1 4.3 1.6z"/>
							</g>
							<g id="&lt;Group&gt;">
								<path id="&lt;Path&gt;" class="s6" d="m446.1 524.7c3.2-5.4 13.1-8.4 17.5-1.8 4.4 6.7 4.5 15.5-2.5 17.6-7 2.1-11.6 3.4-15.2-2.5-3.5-5.9 0.2-13.3 0.2-13.3z"/>
							</g>
						</g>
						<g id="&lt;Group&gt;">
							<g id="&lt;Group&gt;">
								<path id="&lt;Compound Path&gt;" fill-rule="evenodd" class="s12" d="m435.4 588.5c-7 2.2-11.7 3.4-15.2-2.5-3.5-5.9 0.1-13.2 0.1-13.2 3.2-5.5 13.1-8.5 17.5-1.9 4.5 6.7 4.6 15.5-2.4 17.6zm-5.1-7c2-0.6 3.2-2.3 2.8-3.7-0.5-1.5-2.4-2.2-4.4-1.6-2 0.6-3.2 2.3-2.8 3.7 0.5 1.5 2.4 2.2 4.4 1.6z"/>
								<path id="&lt;Path&gt;" class="s13" d="m433.1 577.8c0.4 1.4-0.8 3.1-2.8 3.7-2 0.6-3.9-0.1-4.4-1.6-0.4-1.4 0.8-3.1 2.8-3.7 2-0.6 3.9 0.1 4.4 1.6z"/>
							</g>
							<g id="&lt;Group&gt;">
								<path id="&lt;Path&gt;" class="s6" d="m420.3 572.8c3.2-5.5 13.1-8.5 17.5-1.9 4.5 6.7 4.6 15.5-2.4 17.6-7 2.2-11.7 3.4-15.2-2.5-3.5-5.9 0.1-13.2 0.1-13.2z"/>
							</g>
						</g>
					</g>
				</g>
			</g>
			<g id="&lt;Group&gt;">
				<g id="&lt;Group&gt;">
				</g>
			</g>
			<g id="&lt;Group&gt;">
				<g id="&lt;Group&gt;">
				</g>
			</g>
		</g>
	</g>
</svg>